<?xml version="1.0" encoding="utf-8"?>
<!-- Generator: Adobe Illustrator 21.0.2, SVG Export Plug-In . SVG Version: 6.00 Build 0)  -->
<svg version="1.1" id="Capa_1" xmlns="http://www.w3.org/2000/svg" xmlns:xlink="http://www.w3.org/1999/xlink" x="0px" y="0px"
	 viewBox="0 0 63 63" style="enable-background:new 0 0 63 63;" xml:space="preserve">
<style type="text/css">
	.st0{fill:#FFFFFF;}
</style>
<g>
	<g>
		<g id="group-13svg">
			<path id="path-1_3_" class="st0" d="M49,23.5c0,3-2.5,5.5-5.5,5.5h-23c-3,0-5.5-2.5-5.5-5.5v-12c0-3,2.5-5.5,5.5-5.5h23
				c3,0,5.5,2.5,5.5,5.5V23.5z M46,11.5c0-1.4-1.1-2.5-2.5-2.5h-23c-1.4,0-2.5,1.1-2.5,2.5v12c0,1.4,1.1,2.5,2.5,2.5h23
				c1.4,0,2.5-1.1,2.5-2.5V11.5z"/>
			<path id="path-2_3_" class="st0" d="M56,45.5c0,3-2.5,5.5-5.5,5.5h-38c-3,0-5.5-2.5-5.5-5.5v-40C7,2.5,9.5,0,12.5,0h38
				c3,0,5.5,2.5,5.5,5.5V45.5z M53,5.5C53,4.1,51.9,3,50.5,3h-38C11.1,3,10,4.1,10,5.5v40c0,1.4,1.1,2.5,2.5,2.5h38
				c1.4,0,2.5-1.1,2.5-2.5V5.5z"/>
			<path id="path-3_3_" class="st0" d="M23.2,43l-0.5-1.4H18L17.4,43c-0.2,0.6-0.4,1-0.5,1.2c-0.2,0.2-0.4,0.3-0.7,0.3
				c-0.3,0-0.6-0.1-0.8-0.3c-0.2-0.2-0.3-0.5-0.3-0.7c0-0.2,0-0.3,0.1-0.5s0.1-0.4,0.3-0.7l2.9-7.5c0.1-0.2,0.2-0.5,0.3-0.8
				s0.2-0.5,0.4-0.7c0.1-0.2,0.3-0.4,0.5-0.5c0.2-0.1,0.5-0.2,0.8-0.2c0.3,0,0.6,0.1,0.8,0.2c0.2,0.1,0.4,0.3,0.5,0.5
				c0.1,0.2,0.2,0.4,0.3,0.6c0.1,0.2,0.2,0.5,0.3,0.9l3,7.4c0.2,0.6,0.4,1,0.4,1.2c0,0.3-0.1,0.5-0.3,0.7c-0.2,0.2-0.5,0.3-0.8,0.3
				c-0.2,0-0.3,0-0.5-0.1c-0.1-0.1-0.2-0.2-0.3-0.3c-0.1-0.1-0.2-0.3-0.3-0.5C23.4,43.3,23.3,43.1,23.2,43z M18.6,39.8H22L20.3,35
				L18.6,39.8z"/>
			<path id="path-4_3_" class="st0" d="M33.4,34.7h-2.5V43c0,0.5-0.1,0.8-0.3,1.1c-0.2,0.2-0.5,0.3-0.8,0.3c-0.3,0-0.6-0.1-0.8-0.4
				c-0.2-0.2-0.3-0.6-0.3-1.1v-8.3H26c-0.4,0-0.7-0.1-0.9-0.3c-0.2-0.2-0.3-0.4-0.3-0.7c0-0.3,0.1-0.5,0.3-0.7
				c0.2-0.2,0.5-0.3,0.9-0.3h7.4c0.4,0,0.7,0.1,0.9,0.3c0.2,0.2,0.3,0.4,0.3,0.7s-0.1,0.5-0.3,0.7C34.1,34.6,33.8,34.7,33.4,34.7z"
				/>
			<path id="path-5_3_" class="st0" d="M39.9,42.5L38,35.2v7.9c0,0.4-0.1,0.8-0.3,1c-0.2,0.2-0.5,0.3-0.8,0.3
				c-0.3,0-0.6-0.1-0.8-0.3c-0.2-0.2-0.3-0.5-0.3-1V34c0-0.5,0.1-0.8,0.4-1c0.3-0.2,0.6-0.3,1.1-0.3h0.7c0.4,0,0.7,0,0.9,0.1
				c0.2,0.1,0.3,0.2,0.4,0.4c0.1,0.2,0.2,0.5,0.3,1l1.7,6.3l1.7-6.3c0.1-0.5,0.2-0.8,0.3-1c0.1-0.2,0.2-0.3,0.4-0.4
				c0.2-0.1,0.5-0.1,0.9-0.1h0.7c0.4,0,0.8,0.1,1.1,0.3s0.4,0.5,0.4,1v9.1c0,0.4-0.1,0.8-0.3,1c-0.2,0.2-0.5,0.3-0.8,0.3
				c-0.3,0-0.6-0.1-0.8-0.3c-0.2-0.2-0.3-0.5-0.3-1v-7.9L43,42.5c-0.1,0.5-0.2,0.8-0.3,1c-0.1,0.2-0.2,0.4-0.4,0.6
				c-0.2,0.2-0.5,0.3-0.8,0.3c-0.3,0-0.5-0.1-0.7-0.2c-0.2-0.1-0.3-0.3-0.4-0.5c-0.1-0.2-0.2-0.4-0.2-0.6C40,43,39.9,42.8,39.9,42.5
				z"/>
			<path id="path-6_2_" class="st0" d="M42.6,18h-5c-0.8,0-1.5-0.7-1.5-1.5s0.7-1.5,1.5-1.5h5c0.8,0,1.5,0.7,1.5,1.5
				S43.4,18,42.6,18z"/>
			<path id="path-7_2_" class="st0" d="M42.6,23h-5c-0.8,0-1.5-0.7-1.5-1.5s0.7-1.5,1.5-1.5h5c0.8,0,1.5,0.7,1.5,1.5
				S43.4,23,42.6,23z"/>
			<path id="path-8_2_" class="st0" d="M25.6,18h-5c-0.8,0-1.5-0.7-1.5-1.5s0.7-1.5,1.5-1.5h5c0.8,0,1.5,0.7,1.5,1.5
				S26.4,18,25.6,18z"/>
			<path id="path-9_1_" class="st0" d="M25.6,23h-5c-0.8,0-1.5-0.7-1.5-1.5s0.7-1.5,1.5-1.5h5c0.8,0,1.5,0.7,1.5,1.5
				S26.4,23,25.6,23z"/>
			<path id="path-10" class="st0" d="M62,57.5c0,3-2.5,5.5-5.5,5.5h-50c-3,0-5.5-2.5-5.5-5.5v-4c0-3,2.5-5.5,5.5-5.5h50
				c3,0,5.5,2.5,5.5,5.5V57.5z M59,53.5c0-1.4-1.1-2.5-2.5-2.5h-50C5.1,51,4,52.1,4,53.5v4C4,58.9,5.1,60,6.5,60h50
				c1.4,0,2.5-1.1,2.5-2.5V53.5z"/>
		</g>
	</g>
</g>
</svg>
